# Blender v2.76 (sub 0) OBJ File: ''
# www.blender.org
mtllib compost_stone_rind.mtl
o rightSide
v 0.906250 -0.007500 0.125000
v 0.093750 -0.007500 0.125000
v 0.093750 0.055000 0.125000
v 0.906250 0.055000 0.125000
v 0.093750 -0.007500 0.875000
v 0.906250 -0.007500 0.875000
v 0.906250 0.055000 0.875000
v 0.093750 0.055000 0.875000
v 0.968750 -0.007500 0.062500
v 0.031250 -0.007500 0.062500
v 0.031250 0.805000 0.062500
v 0.968750 0.805000 0.062500
v 0.031250 -0.007500 0.125000
v 0.968750 -0.007500 0.125000
v 0.968750 0.805000 0.125000
v 0.031250 0.805000 0.125000
v 0.968750 -0.007500 0.875000
v 0.031250 -0.007500 0.875000
v 0.031250 0.867500 0.875000
v 0.968750 0.867500 0.875000
v 0.031250 -0.007500 0.937500
v 0.968750 -0.007500 0.937500
v 0.968750 0.867500 0.937500
v 0.031250 0.867500 0.937500
v 1.000000 0.861250 0.843750
v 0.000000 0.861250 0.843750
v 0.000000 0.923750 0.843750
v 1.000000 0.923750 0.843750
v 0.000000 0.861250 0.968750
v 1.000000 0.861250 0.968750
v 1.000000 0.923750 0.968750
v 0.000000 0.923750 0.968750
v 1.000000 1.086416 0.054111
v 0.000000 1.086416 0.054111
v 0.000000 1.146495 0.071339
v 1.000000 1.146495 0.071339
v 0.000000 0.862461 0.835136
v 1.000000 0.862460 0.835136
v 1.000000 0.922539 0.852364
v 0.000000 0.922539 0.852364
v 0.093750 -0.007500 0.125000
v 0.031250 -0.007500 0.125000
v 0.031250 0.805000 0.125000
v 0.093750 0.805000 0.125000
v 0.031250 -0.007500 0.875000
v 0.093750 -0.007500 0.875000
v 0.093750 0.805000 0.875000
v 0.031250 0.805000 0.875000
v 0.969375 -0.007500 0.125000
v 0.906875 -0.007500 0.125000
v 0.906875 0.805000 0.125000
v 0.969375 0.805000 0.125000
v 0.906875 -0.007500 0.875000
v 0.969375 -0.007500 0.875000
v 0.969375 0.805000 0.875000
v 0.906875 0.805000 0.875000
v 0.968688 0.742684 0.070420
v 0.906188 0.742684 0.070420
v 0.906188 0.805000 0.065625
v 0.968688 0.805000 0.065625
v 0.906188 0.805018 0.880525
v 0.968688 0.805018 0.880525
v 0.968688 0.867334 0.875730
v 0.906188 0.867334 0.875730
v 0.094375 0.742684 0.070420
v 0.031875 0.742684 0.070420
v 0.031875 0.805000 0.065625
v 0.094375 0.805000 0.065625
v 0.031875 0.805018 0.880525
v 0.094375 0.805018 0.880525
v 0.094375 0.867334 0.875730
v 0.031875 0.867334 0.875730
vt 0.406250 0.296875
vt 0.609375 0.296875
vt 0.609375 0.312500
vt 0.406250 0.312500
vt 0.796875 0.296875
vt 1.000000 0.296875
vt 1.000000 0.312500
vt 0.796875 0.312500
vt 0.609375 0.500000
vt 0.406250 0.500000
vt 0.812500 0.312500
vt 0.812500 0.500000
vt 0.218750 0.296875
vt 0.218750 0.312500
vt 0.515625 0.515625
vt 0.750000 0.515625
vt 0.750000 0.718750
vt 0.515625 0.718750
vt 0.765625 0.515625
vt 1.000000 0.515625
vt 1.000000 0.718750
vt 0.765625 0.718750
vt 0.750000 0.734375
vt 0.515625 0.734375
vt 0.984375 0.718750
vt 0.984375 0.734375
vt 0.500000 0.515625
vt 0.500000 0.718750
vt 0.015625 0.500000
vt 0.250000 0.500000
vt 0.250000 0.718750
vt 0.015625 0.718750
vt 0.265625 0.500000
vt 0.500000 0.500000
vt 0.265625 0.718750
vt 0.250000 0.734375
vt 0.015625 0.734375
vt 0.484375 0.718750
vt 0.484375 0.734375
vt 0.000000 0.500000
vt 0.000000 0.718750
vt 0.031250 0.734375
vt 0.281250 0.734375
vt 0.281250 0.750000
vt 0.031250 0.750000
vt 0.312500 0.734375
vt 0.562500 0.734375
vt 0.562500 0.750000
vt 0.312500 0.750000
vt 0.281250 0.781250
vt 0.031250 0.781250
vt 0.531250 0.750000
vt 0.531250 0.781250
vt 0.000000 0.734375
vt 0.000000 0.750000
vt 0.203125 0.781250
vt 0.453125 0.781250
vt 0.453125 0.796875
vt 0.203125 0.796875
vt 0.656250 0.781250
vt 0.906250 0.781250
vt 0.906250 0.796875
vt 0.656250 0.796875
vt 0.453125 1.000000
vt 0.203125 1.000000
vt 0.703125 0.796875
vt 0.703125 1.000000
vt 0.000000 0.781250
vt 0.000000 0.796875
vt 0.218750 0.078125
vt 0.203125 0.078125
vt 0.203125 0.281250
vt 0.218750 0.281250
vt 0.421875 0.078125
vt 0.406250 0.078125
vt 0.406250 0.281250
vt 0.421875 0.281250
vt 0.203125 0.468750
vt 0.218750 0.468750
vt 0.234375 0.281250
vt 0.234375 0.468750
vt 0.015625 0.078125
vt 0.015625 0.281250
vt 0.203125 0.296875
vt 0.437500 0.281250
vt 0.437500 0.296875
vt 0.421875 0.296875
vt 0.218750 0.500000
vt 0.203125 0.500000
vt 0.234375 0.296875
vt 0.234375 0.500000
vt 0.000000 0.281250
vt 0.000000 0.296875
vn 0.000000 0.000000 -1.000000
vn 0.000000 0.000000 1.000000
vn 0.000000 1.000000 0.000000
vn 0.000000 -1.000000 -0.000000
vn 1.000000 0.000000 0.000000
vn -1.000000 0.000000 0.000000
vn 0.000000 0.275600 -0.961300
vn -0.000000 -0.275600 0.961300
vn 0.000000 0.961300 0.275600
vn -0.000000 -0.961300 -0.275600
vn 0.000000 -0.076700 -0.997100
vn 0.000000 0.076700 0.997100
vn 0.000000 0.997100 -0.076700
vn 0.000000 -0.997100 0.076700
usemtl None
s 1
f 1/1/1 2/2/1 3/3/1 4/4/1
f 5/5/2 6/6/2 7/7/2 8/8/2
f 4/4/3 3/3/3 8/9/3 7/10/3
f 6/3/4 5/11/4 2/12/4 1/9/4
f 6/13/5 1/1/5 4/4/5 7/14/5
f 2/2/6 5/5/6 8/8/6 3/3/6
f 9/15/1 10/16/1 11/17/1 12/18/1
f 13/19/2 14/20/2 15/21/2 16/22/2
f 12/18/3 11/17/3 16/23/3 15/24/3
f 14/17/4 13/25/4 10/26/4 9/23/4
f 14/27/5 9/15/5 12/18/5 15/28/5
f 10/16/6 13/19/6 16/22/6 11/17/6
f 17/29/1 18/30/1 19/31/1 20/32/1
f 21/33/2 22/34/2 23/28/2 24/35/2
f 20/32/3 19/31/3 24/36/3 23/37/3
f 22/31/4 21/38/4 18/39/4 17/36/4
f 22/40/5 17/29/5 20/32/5 23/41/5
f 18/30/6 21/33/6 24/35/6 19/31/6
f 25/42/1 26/43/1 27/44/1 28/45/1
f 29/46/2 30/47/2 31/48/2 32/49/2
f 28/45/3 27/44/3 32/50/3 31/51/3
f 30/44/4 29/52/4 26/53/4 25/50/4
f 30/54/5 25/42/5 28/45/5 31/55/5
f 26/43/6 29/46/6 32/49/6 27/44/6
f 33/56/7 34/57/7 35/58/7 36/59/7
f 37/60/8 38/61/8 39/62/8 40/63/8
f 36/59/9 35/58/9 40/64/9 39/65/9
f 38/58/10 37/66/10 34/67/10 33/64/10
f 38/68/5 33/56/5 36/59/5 39/69/5
f 34/57/6 37/60/6 40/63/6 35/58/6
f 41/70/1 42/71/1 43/72/1 44/73/1
f 45/74/2 46/75/2 47/76/2 48/77/2
f 44/73/3 43/72/3 48/78/3 47/79/3
f 46/80/4 45/73/4 42/79/4 41/81/4
f 46/75/5 41/70/5 44/73/5 47/76/5
f 42/71/6 45/82/6 48/83/6 43/72/6
f 49/71/1 50/70/1 51/73/1 52/72/1
f 53/75/2 54/74/2 55/77/2 56/76/2
f 52/72/3 51/73/3 56/79/3 55/78/3
f 54/73/4 53/80/4 50/81/4 49/79/4
f 54/82/5 49/71/5 52/72/5 55/83/5
f 50/70/6 53/75/6 56/76/6 51/73/6
f 57/72/11 58/73/11 59/13/11 60/84/11
f 61/77/12 62/85/12 63/86/12 64/87/12
f 60/84/13 59/13/13 64/88/13 63/89/13
f 62/13/14 61/90/14 58/91/14 57/88/14
f 62/92/5 57/72/5 60/84/5 63/93/5
f 58/73/6 61/77/6 64/87/6 59/13/6
f 65/73/11 66/72/11 67/84/11 68/13/11
f 69/85/12 70/77/12 71/87/12 72/86/12
f 68/13/13 67/84/13 72/89/13 71/88/13
f 70/90/14 69/13/14 66/88/14 65/91/14
f 70/77/5 65/73/5 68/13/5 71/87/5
f 66/72/6 69/92/6 72/93/6 67/84/6
